# xmcd CD database file
#
# Track frame offsets:
#	150
#	20675
#	48690
#	67962
#	87547
#	111357
#	132050
#	153842
#	179622
#	198317
#	225727
#	254362
#	282600
#
# Disc length: 4012 seconds
#
# Revision: 0
# Processed by: cddbd v1.5.1PL0 Copyright (c) Steve Scherf et al.
# Submitted via: CDex 1.51
#
DISCID=be0faa0d
DTITLE=カーマイン - カーマイン
DYEAR=1998
DGENRE=Rock
TTITLE0=鳴けない鳥(New Ver.)
TTITLE1=雨は見ないで
TTITLE2=自分の影が(New Ver.)
TTITLE3=暗闇の彼方へ
TTITLE4=Snow Ball
TTITLE5=僕はやってきた
TTITLE6=City Song
TTITLE7=終わりなき世界(Higher Ground Mix)
TTITLE8=鳴けない鳥
TTITLE9=海の底
TTITLE10=水の人形
TTITLE11=車とばしてさ
TTITLE12=新しいシーン
EXTD=YEAR: 1998.04/25
EXTT0=
EXTT1=
EXTT2=
EXTT3=
EXTT4=
EXTT5=
EXTT6=
EXTT7=
EXTT8=
EXTT9=
EXTT10=
EXTT11=
EXTT12=
PLAYORDER=
